#!OML:ASF F:\twosubjects\two\wednesday\Session 1\rory1.ASF
:FULLY-SPECIFIED
:DEGREES
65
root 13.6358 18.4178 14.1158 -178.375 1.94397 -186.207
lowerback -0.200065 1.94322 -6.99471
upperback 0.713135 2.81643 -2.55184
thorax 0.650007 1.44217 1.30179
lowerneck -9.90272 -2.2627 -2.40307
upperneck 13.7765 -2.99937 0.564894
head 5.83986 -1.62975 0.324884
rclavicle 3.36567e-014 7.95139e-016
rhumerus -1.62438 -29.3752 -87.7243
rradius 16.2648
rwrist 16.4511
rhand -15.5142 33.7591
rfingers 7.12502
rthumb 10.6688 4.04999
lclavicle 3.36567e-014 7.95139e-016
lhumerus -27.5586 24.4138 80.6813
lradius 13.5598
lwrist -9.48992
lhand -22.5142 18.669
lfingers 7.12502
lthumb 3.91226 48.6128
rfemur -15.376 4.36804 10.6442
rtibia 63.2096
rfoot -4.67138 -0.996162
rtoes 12.2754
lfemur -21.7839 -4.2173 -29.6873
ltibia 29.8913
lfoot -7.03819 4.34263
ltoes 2.90986
66
root 13.6174 18.4187 13.9685 -178.598 2.38597 -186.175
lowerback -0.303422 1.87385 -7.06292
upperback 0.865733 2.72873 -2.34791
thorax 0.858638 1.38252 1.55674
lowerneck -9.78181 -2.13254 -2.19277
upperneck 13.6218 -2.7867 0.092753
head 5.75768 -1.55025 0.161761
rclavicle 2.24005e-014 -3.97569e-015
rhumerus -3.63052 -27.8607 -86.8256
rradius 16.686
rwrist 14.6047
rhand -14.7845 33.6244
rfingers 7.12502
rthumb 11.3726 3.95276
lclavicle 2.24005e-014 -3.97569e-015
lhumerus -25.4225 22.3679 82.7158
lradius 14.3813
lwrist -6.32767
lhand -22.289 19.83
lfingers 7.12502
lthumb 4.12969 49.7698
rfemur -17.1043 4.54256 10.4468
rtibia 63.4121
rfoot -5.98581 -0.973892
rtoes 13.0256
lfemur -21.2367 -3.66635 -29.8017
ltibia 30.2804
lfoot -7.84856 4.0401
ltoes 3.94654
67
root 13.5986 18.4092 13.8334 -178.846 2.49273 -186.365
lowerback 0.00787547 1.74303 -7.28782
upperback 0.890098 2.52445 -2.25541
thorax 0.711806 1.28177 1.76475
lowerneck -9.89244 -2.01922 -2.11297
upperneck 13.8125 -2.63251 -0.0398015
head 5.83183 -1.48564 0.116261
rclavicle 1.92448e-014 -2.24627e-014
rhumerus -5.81777 -26.7469 -86.0084
rradius 17.266
rwrist 12.9182
rhand -14.7191 33.5916
rfingers 7.12502
rthumb 11.4357 3.92347
lclavicle 1.92448e-014 -2.24627e-014
lhumerus -23.4513 21.0137 84.1621
lradius 14.9903
lwrist -4.63042
lhand -21.8109 19.9217
lfingers 7.12502
lthumb 4.59134 49.852
rfemur -18.8006 4.38713 10.0571
rtibia 63.5368
rfoot -7.17612 -0.695179
rtoes 13.0241
lfemur -20.6961 -3.14407 -30.1752
ltibia 30.6368
lfoot -8.57297 3.59613
ltoes 6.05261
68
root 13.5829 18.3947 13.7085 -178.967 2.27159 -186.656
lowerback 0.336974 1.59524 -7.49545
upperback 0.822505 2.29884 -2.3035
thorax 0.470871 1.18013 1.81815
lowerneck -9.95993 -1.98015 -2.12262
upperneck 14.198 -2.61213 0.0501597
head 5.96579 -1.47973 0.143507
rclavicle -1.55673e-014 -2.04748e-014
rhumerus -7.9343 -27.077 -85.3218
rradius 17.672
rwrist 12.33
rhand -15.2418 33.3023
rfingers 7.12502
rthumb 10.9315 3.60689
lclavicle -1.55673e-014 -2.04748e-014
lhumerus -21.6757 19.1416 85.4045
lradius 15.729
lwrist -2.97663
lhand -21.0371 15.9445
lfingers 7.12502
lthumb 5.33849 45.8573
rfemur -20.5708 3.85979 9.58534
rtibia 63.5209
rfoot -8.267 -0.391233
rtoes 12.3748
lfemur -20.2609 -2.94493 -30.6261
ltibia 30.9687
lfoot -9.22206 3.11467
ltoes 9.333
69
root 13.574 18.377 13.5846 -179.033 1.96442 -186.924
lowerback 0.551044 1.35656 -7.78552
upperback 0.832333 1.96613 -2.30953
thorax 0.381421 1.01813 1.96869
lowerneck -10.2034 -1.87737 -2.07155
upperneck 14.5668 -2.47485 -0.0517056
head 6.12066 -1.42585 0.108314
rclavicle -6.92019e-015 4.45278e-014
rhumerus -9.64832 -27.907 -84.7193
rradius 17.6771
rwrist 12.5416
rhand -15.4145 33.202
rfingers 7.12502
rthumb 10.765 3.49784
lclavicle -6.92019e-015 4.45278e-014
lhumerus -19.8283 17.4581 86.4538
lradius 16.3151
lwrist -0.96152
lhand -21.6441 9.2269
lfingers 7.12502
lthumb 4.7524 39.1536
rfemur -22.353 3.30532 9.17323
rtibia 63.3652
rfoot -9.46693 -0.0995562
rtoes 12.2354
lfemur -19.8726 -2.70308 -31.0414
ltibia 31.2863
lfoot -9.48557 2.49621
ltoes 9.35946
70
root 13.5669 18.3624 13.4531 -179.12 1.94087 -186.955
lowerback 0.646966 1.14775 -7.93693
upperback 0.893761 1.67636 -2.19492
thorax 0.410113 0.8681 2.17175
lowerneck -10.5843 -1.68906 -2.02804
upperneck 14.9371 -2.20643 -0.182756
head 6.29911 -1.30989 0.0752395
rclavicle 7.93896e-015 9.83984e-015
rhumerus -11.3247 -28.2891 -84.0703
rradius 17.6302
rwrist 12.6405
rhand -15.0878 33.4254
rfingers 7.12502
rthumb 11.0801 3.73784
lclavicle 7.93896e-015 9.83984e-015
lhumerus -17.849 17.0974 87.0235
lradius 16.451
lwrist -0.741153
lhand -21.4723 4.66643
lfingers 7.12502
lthumb 4.91834 34.5893
rfemur -24.1358 3.20498 9.06674
rtibia 63.0539
rfoot -10.3799 0.0871646
rtoes 12.4824
lfemur -19.4662 -2.31344 -31.1677
ltibia 31.5821
lfoot -9.4293 2.04189
ltoes 4.18023
71
root 13.5585 18.3512 13.3213 -179.264 1.98198 -187.133
lowerback 0.796946 1.01133 -8.17313
upperback 0.948947 1.48681 -2.19045
thorax 0.396341 0.773628 2.30631
lowerneck -10.7973 -1.48635 -2.11302
upperneck 15.2128 -1.95149 0.0123648
head 6.42402 -1.18097 0.16922
rclavicle 3.37313e-015 -8.74653e-015
rhumerus -13.2208 -27.9581 -83.4288
rradius 17.8655
rwrist 11.9387
rhand -14.9048 33.4411
rfingers 7.12502
rthumb 11.2566 3.76308
lclavicle 3.37313e-015 -8.74653e-015
lhumerus -15.8431 17.0621 87.3297
lradius 16.5482
lwrist -1.881
lhand -20.4985 5.22933
lfingers 7.12502
lthumb 5.85854 35.1283
rfemur -25.8876 3.281 8.79367
rtibia 62.644
rfoot -11.1521 0.264951
rtoes 11.0532
lfemur -18.9806 -2.06303 -31.4314
ltibia 31.8476
lfoot -9.64339 1.80545
ltoes 0.397984
72
root 13.5549 18.3343 13.1944 -179.338 1.8401 -187.605
lowerback 0.975556 0.803359 -8.77801
upperback 0.939293 1.20117 -2.239
thorax 0.306569 0.637897 2.59055
lowerneck -10.4616 -1.36675 -2.13524
upperneck 15.008 -1.79889 0.0374269
head 6.29944 -1.10675 0.197827
rclavicle 2.81405e-015 -1.46107e-014
rhumerus -15.1348 -27.6824 -82.7837
rradius 18.0567
rwrist 11.4167
rhand -15.131 33.2697
rfingers 7.12502
rthumb 11.0384 3.57992
lclavicle 2.81405e-015 -1.46107e-014
lhumerus -14.0713 16.0902 87.8119
lradius 17.1382
lwrist -1.41353
lhand -19.9502 10.0923
lfingers 7.12502
lthumb 6.38788 39.976
rfemur -27.6913 3.33984 8.16352
rtibia 62.1963
rfoot -11.8695 0.500986
rtoes 10.3438
lfemur -18.5324 -2.04482 -32.009
ltibia 32.0433
lfoot -10.1695 1.63192
ltoes -1.17185
73
root 13.5553 18.312 13.0732 -179.223 1.57367 -187.88
lowerback 1.02116 0.579372 -9.26445
upperback 0.891449 0.894002 -2.17871
thorax 0.258718 0.486781 2.92465
lowerneck -9.95323 -1.3769 -1.90538
upperneck 14.5689 -1.79356 -0.378549
head 6.06667 -1.12051 0.0354332
rclavicle 2.49102e-015 -2.33572e-014
rhumerus -17.0087 -27.8404 -81.9378
rradius 18.1013
rwrist 11.5686
rhand -15.3423 33.0227
rfingers 7.12502
rthumb 10.8346 3.32214
lclavicle 2.49102e-015 -2.33572e-014
lhumerus -12.3541 14.7509 88.4156
lradius 17.816
lwrist -0.0603405
lhand -19.585 16.1871
lfingers 7.12502
lthumb 6.74044 46.0598
rfemur -29.6539 3.44378 7.7576
rtibia 61.6711
rfoot -12.2232 0.426783
rtoes 11.0019
lfemur -18.2225 -2.2855 -32.3516
ltibia 32.1174
lfoot -10.7695 1.64896
ltoes -2.60197
74
root 13.5533 18.3034 12.9513 -179.155 1.20234 -187.892
lowerback 1.1171 0.417636 -9.45778
upperback 0.885535 0.660076 -2.06332
thorax 0.223364 0.368545 3.15287
lowerneck -9.75364 -1.44053 -1.57483
upperneck 14.3984 -1.86351 -0.867992
head 5.97112 -1.17343 -0.176143
rclavicle -1.56854e-015 3.75206e-014
rhumerus -18.9191 -28.169 -80.8333
rradius 18.0538
rwrist 11.9008
rhand -15.0431 32.9792
rfingers 7.12502
rthumb 11.1232 3.29395
lclavicle -1.56854e-015 3.75206e-014
lhumerus -10.4346 13.4977 88.958
lradius 18.1863
lwrist 0.885306
lhand -18.8824 21.6524
lfingers 7.12502
lthumb 7.41871 51.5024
rfemur -31.4469 3.41185 7.66371
rtibia 61.0201
rfoot -12.6203 -0.00537223
rtoes 8.75901
lfemur -17.7991 -2.57269 -32.4173
ltibia 32.1268
lfoot -11.1826 1.66895
ltoes -3.79352
75
root 13.5461 18.3147 12.8177 -179.287 1.04184 -187.892
lowerback 1.26264 0.327965 -9.60367
upperback 0.923074 0.518802 -1.94018
thorax 0.195987 0.294892 3.36208
lowerneck -9.70975 -1.42197 -1.4677
upperneck 14.5104 -1.83025 -1.11286
head 5.99544 -1.1761 -0.269218
rclavicle 2.50655e-015 4.77083e-015
rhumerus -20.9001 -28.5646 -79.6416
rradius 17.8988
rwrist 12.4566
rhand -14.7345 33.2001
rfingers 7.12502
rthumb 11.4208 3.53113
lclavicle 2.50655e-015 4.77083e-015
lhumerus -8.54671 12.6512 89.2975
lradius 18.2382
lwrist 1.75939
lhand -18.4728 23.7296
lfingers 7.12502
lthumb 7.81401 53.5652
rfemur -32.9106 3.59224 7.54067
rtibia 60.1606
rfoot -13.1072 -0.282576
rtoes 6.48079
lfemur -17.1176 -2.40314 -32.5021
ltibia 32.0584
lfoot -11.3445 1.41273
ltoes -4.57705
76
root 13.5383 18.3215 12.6948 -179.339 1.10514 -187.865
lowerback 1.48505 0.23661 -9.58672
upperback 0.912089 0.367498 -1.91148
thorax 0.0786333 0.224033 3.38306
lowerneck -9.74288 -1.68491 -1.4002
upperneck 14.6047 -1.59303 -1.15262
head 6.03103 -0.819185 -0.24939
rclavicle -7.87374e-016 4.54968e-014
rhumerus -22.7616 -28.2192 -78.9272
rradius 17.7938
rwrist 12.547
rhand -14.9634 33.5893
rfingers 7.12502
rthumb 11.2 3.90822
lclavicle -7.87374e-016 4.54968e-014
lhumerus -6.66466 12.1755 89.299
lradius 18.0138
lwrist 2.42967
lhand -18.6763 22.7515
lfingers 7.12502
lthumb 7.61758 52.5943
rfemur -34.4608 4.15663 7.34578
rtibia 59.0867
rfoot -13.5018 -0.476992
rtoes 6.79297
lfemur -16.5186 -2.15108 -32.5433
ltibia 31.8133
lfoot -11.5047 1.25375
ltoes -5.27333
77
root 13.5344 18.3268 12.575 -179.238 1.209 -187.906
lowerback 1.63574 0.0921295 -9.58393
upperback 0.913587 0.16249 -1.97716
thorax 0.0224713 0.126803 3.31602
lowerneck -10.1223 -1.56241 -1.23329
upperneck 14.7385 -1.44964 -1.17847
head 6.13675 -0.747669 -0.277375
rclavicle -6.42944e-016 -1.71452e-014
rhumerus -24.2411 -27.709 -78.5466
rradius 17.508
rwrist 12.591
rhand -15.2235 33.6641
rfingers 7.12502
rthumb 10.9492 3.9696
lclavicle -6.42944e-016 -1.71452e-014
lhumerus -4.74462 11.3468 89.1594
lradius 18.2214
lwrist 3.29512
lhand -18.967 23.2216
lfingers 7.12502
lthumb 7.33697 53.0744
rfemur -36.1256 4.67645 7.0441
rtibia 57.8555
rfoot -13.634 -0.916115
rtoes 6.73046
lfemur -15.999 -2.10699 -32.6274
ltibia 31.3742
lfoot -11.7565 1.39616
ltoes -5.74172
